REM DIRINDEX 1\2\6,1\2\7,1\2\8,1\3\9,1\3\10,1\3\11,1\4\12,1\4\13,1\4\14,1\5\15,1\5\16,1\5\17,1\5\18
REM DIRNAME folder01,folder02,folder03,folder04,folder05,folder06,folder07,folder08,folder09,folder10,folder11,folder12,folder13,folder14,folder15,folder16,folder17,folder18
TITLE ""
FILE "" MP3
  TRACK 01 AUDIO
    TITLE "16:cjc019_7861"
    INDEX 01 00:00:00
  TRACK 02 AUDIO
    TITLE "0:"
    INDEX 01 00:01:22
  TRACK 03 AUDIO
    TITLE "18:cjc019_7862"
    INDEX 01 00:02:02
  TRACK 04 AUDIO
    TITLE "0:"
    INDEX 01 00:03:49
  TRACK 05 AUDIO
    TITLE "17:cjc019_7863"
    INDEX 01 00:04:31
  TRACK 06 AUDIO
    TITLE "0:"
    INDEX 01 00:05:65
  TRACK 07 AUDIO
    TITLE "16:cjc019_7864"
    INDEX 01 00:07:47
  TRACK 08 AUDIO
    TITLE "0:"
    INDEX 01 00:08:54
  TRACK 09 AUDIO
    TITLE "18:cjc019_7865"
    INDEX 01 00:09:32
  TRACK 10 AUDIO
    TITLE "0:"
    INDEX 01 00:11:66
  TRACK 11 AUDIO
    TITLE "17:cjc019_7866"
    INDEX 01 00:12:44
  TRACK 12 AUDIO
    TITLE "0:"
    INDEX 01 00:13:55
  TRACK 13 AUDIO
    TITLE "16:cjc019_7867"
    INDEX 01 00:15:36
  TRACK 14 AUDIO
    TITLE "0:"
    INDEX 01 00:16:65
  TRACK 15 AUDIO
    TITLE "18:cjc019_7868"
    INDEX 01 00:17:49
  TRACK 16 AUDIO
    TITLE "0:"
    INDEX 01 00:20:00
  TRACK 17 AUDIO
    TITLE "17:cjc019_7869"
    INDEX 01 00:20:55
  TRACK 18 AUDIO
    TITLE "0:"
    INDEX 01 00:22:05
  TRACK 19 AUDIO
    TITLE "16:cjc019_7870"
    INDEX 01 00:23:73
  TRACK 20 AUDIO
    TITLE "0:"
    INDEX 01 00:25:33
  TRACK 21 AUDIO
    TITLE "18:cjc019_7871"
    INDEX 01 00:26:18
  TRACK 22 AUDIO
    TITLE "0:"
    INDEX 01 00:27:55
  TRACK 23 AUDIO
    TITLE "17:cjc019_7872"
    INDEX 01 00:28:35
  TRACK 24 AUDIO
    TITLE "0:"
    INDEX 01 00:29:74
  TRACK 25 AUDIO
    TITLE "16:cjc019_7873"
    INDEX 01 00:31:57
  TRACK 26 AUDIO
    TITLE "0:"
    INDEX 01 00:32:70
  TRACK 27 AUDIO
    TITLE "18:cjc019_7874"
    INDEX 01 00:33:54
  TRACK 28 AUDIO
    TITLE "0:"
    INDEX 01 00:36:01
  TRACK 29 AUDIO
    TITLE "17:cjc019_7875"
    INDEX 01 00:36:56
  TRACK 30 AUDIO
    TITLE "0:"
    INDEX 01 00:37:71
  TRACK 31 AUDIO
    TITLE "16:cjc019_7876"
    INDEX 01 00:39:51
  TRACK 32 AUDIO
    TITLE "0:"
    INDEX 01 00:40:60
  TRACK 33 AUDIO
    TITLE "18:cjc019_7877"
    INDEX 01 00:41:45
  TRACK 34 AUDIO
    TITLE "0:"
    INDEX 01 00:44:07
  TRACK 35 AUDIO
    TITLE "17:cjc019_7878"
    INDEX 01 00:44:61
  TRACK 36 AUDIO
    TITLE "0:"
    INDEX 01 00:46:00
  TRACK 37 AUDIO
    TITLE "16:cjc019_7879"
    INDEX 01 00:47:62
  TRACK 38 AUDIO
    TITLE "0:"
    INDEX 01 00:48:67
  TRACK 39 AUDIO
    TITLE "18:cjc019_7880"
    INDEX 01 00:49:45
  TRACK 40 AUDIO
    TITLE "0:"
    INDEX 01 00:51:15
  TRACK 41 AUDIO
    TITLE "17:cjc019_7881"
    INDEX 01 00:51:67
  TRACK 42 AUDIO
    TITLE "0:"
    INDEX 01 00:52:73
  TRACK 43 AUDIO
    TITLE "16:cjc019_7882"
    INDEX 01 00:54:58
  TRACK 44 AUDIO
    TITLE "0:"
    INDEX 01 00:55:67
  TRACK 45 AUDIO
    TITLE "18:cjc019_7883"
    INDEX 01 00:56:39
  TRACK 46 AUDIO
    TITLE "0:"
    INDEX 01 00:58:66
  TRACK 47 AUDIO
    TITLE "17:cjc019_7884"
    INDEX 01 00:59:41
  TRACK 48 AUDIO
    TITLE "0:"
    INDEX 01 01:00:55
  TRACK 49 AUDIO
    TITLE "16:cjc019_7885"
    INDEX 01 01:02:42
  TRACK 50 AUDIO
    TITLE "0:"
    INDEX 01 01:03:69
  TRACK 51 AUDIO
    TITLE "18:cjc019_7886"
    INDEX 01 01:04:45
  TRACK 52 AUDIO
    TITLE "0:"
    INDEX 01 01:06:16
  TRACK 53 AUDIO
    TITLE "17:cjc019_7887"
    INDEX 01 01:06:69
  TRACK 54 AUDIO
    TITLE "0:"
    INDEX 01 01:08:21
  TRACK 55 AUDIO
    TITLE "16:cjc019_7888"
    INDEX 01 01:10:08
  TRACK 56 AUDIO
    TITLE "0:"
    INDEX 01 01:11:15
  TRACK 57 AUDIO
    TITLE "18:cjc019_7889"
    INDEX 01 01:11:70
  TRACK 58 AUDIO
    TITLE "0:"
    INDEX 01 01:14:43
  TRACK 59 AUDIO
    TITLE "17:cjc019_7890"
    INDEX 01 01:15:15
  TRACK 60 AUDIO
    TITLE "0:"
    INDEX 01 01:16:22
  TRACK 61 AUDIO
    TITLE "16:cjc019_7891"
    INDEX 01 01:18:06
  TRACK 62 AUDIO
    TITLE "0:"
    INDEX 01 01:19:21
  TRACK 63 AUDIO
    TITLE "18:cjc019_7892"
    INDEX 01 01:20:00
  TRACK 64 AUDIO
    TITLE "0:"
    INDEX 01 01:24:10
  TRACK 65 AUDIO
    TITLE "17:cjc019_7893"
    INDEX 01 01:24:63
  TRACK 66 AUDIO
    TITLE "0:"
    INDEX 01 01:26:07
  TRACK 67 AUDIO
    TITLE "16:cjc019_7894"
    INDEX 01 01:27:61
  TRACK 68 AUDIO
    TITLE "0:"
    INDEX 01 01:29:03
  TRACK 69 AUDIO
    TITLE "18:cjc019_7895"
    INDEX 01 01:29:60
  TRACK 70 AUDIO
    TITLE "0:"
    INDEX 01 01:32:41
  TRACK 71 AUDIO
    TITLE "17:cjc019_7896"
    INDEX 01 01:33:21
  TRACK 72 AUDIO
    TITLE "0:"
    INDEX 01 01:34:40
  TRACK 73 AUDIO
    TITLE "16:cjc019_7897"
    INDEX 01 01:36:25
  TRACK 74 AUDIO
    TITLE "0:"
    INDEX 01 01:37:56
  TRACK 75 AUDIO
    TITLE "18:cjc019_7898"
    INDEX 01 01:38:36
  TRACK 76 AUDIO
    TITLE "0:"
    INDEX 01 01:41:01
  TRACK 77 AUDIO
    TITLE "17:cjc019_7899"
    INDEX 01 01:41:61
  TRACK 78 AUDIO
    TITLE "0:"
    INDEX 01 01:43:21
  TRACK 79 AUDIO
    TITLE "16:cjc019_7900"
    INDEX 01 01:45:08
  TRACK 80 AUDIO
    TITLE "0:"
    INDEX 01 01:46:43
  TRACK 81 AUDIO
    TITLE "18:cjc019_7901"
    INDEX 01 01:47:19
  TRACK 82 AUDIO
    TITLE "0:"
    INDEX 01 01:50:13
  TRACK 83 AUDIO
    TITLE "17:cjc019_7902"
    INDEX 01 01:50:64
  TRACK 84 AUDIO
    TITLE "0:"
    INDEX 01 01:52:28
  TRACK 85 AUDIO
    TITLE "16:cjc019_7903"
    INDEX 01 01:54:07
  TRACK 86 AUDIO
    TITLE "0:"
    INDEX 01 01:55:32
  TRACK 87 AUDIO
    TITLE "18:cjc019_7904"
    INDEX 01 01:56:16
  TRACK 88 AUDIO
    TITLE "0:"
    INDEX 01 01:58:38
  TRACK 89 AUDIO
    TITLE "17:cjc019_7905"
    INDEX 01 01:59:14
  TRACK 90 AUDIO
    TITLE "0:"
    INDEX 01 02:00:45
  TRACK 91 AUDIO
    TITLE "16:cjc019_7906"
    INDEX 01 02:02:26
  TRACK 92 AUDIO
    TITLE "0:"
    INDEX 01 02:03:39
  TRACK 93 AUDIO
    TITLE "18:cjc019_7907"
    INDEX 01 02:04:21
  TRACK 94 AUDIO
    TITLE "0:"
    INDEX 01 02:06:55
  TRACK 95 AUDIO
    TITLE "17:cjc019_7908"
    INDEX 01 02:07:35
  TRACK 96 AUDIO
    TITLE "0:"
    INDEX 01 02:08:52
  TRACK 97 AUDIO
    TITLE "16:cjc019_7909"
    INDEX 01 02:10:38
  TRACK 98 AUDIO
    TITLE "0:"
    INDEX 01 02:11:45
  TRACK 99 AUDIO
    TITLE "18:cjc019_7910"
    INDEX 01 02:12:35
  TRACK 100 AUDIO
    TITLE "0:"
    INDEX 01 02:13:65
  TRACK 101 AUDIO
    TITLE "17:cjc019_7911"
    INDEX 01 02:14:43
  TRACK 102 AUDIO
    TITLE "0:"
    INDEX 01 02:15:54
  TRACK 103 AUDIO
    TITLE "16:cjc019_7912"
    INDEX 01 02:17:38
  TRACK 104 AUDIO
    TITLE "0:"
    INDEX 01 02:18:49
  TRACK 105 AUDIO
    TITLE "18:cjc019_7913"
    INDEX 01 02:19:37
  TRACK 106 AUDIO
    TITLE "0:"
    INDEX 01 02:22:27
  TRACK 107 AUDIO
    TITLE "17:cjc019_7914"
    INDEX 01 02:23:05
  TRACK 108 AUDIO
    TITLE "0:"
    INDEX 01 02:24:22
